<svg width="25" height="25" viewBox="0 0 25 25" fill="none" xmlns="http://www.w3.org/2000/svg">
<path d="M10.5555 18.3653C12.3655 18.3649 14.1233 17.7841 15.5491 16.7152L20.0317 21.0124L21.4736 19.6302L16.991 15.333C18.1065 13.9661 18.7128 12.2806 18.7133 10.5451C18.7133 6.2332 15.0535 2.72485 10.5555 2.72485C6.05758 2.72485 2.39783 6.2332 2.39783 10.5451C2.39783 14.857 6.05758 18.3653 10.5555 18.3653ZM10.5555 4.67991C13.9298 4.67991 16.6738 7.31044 16.6738 10.5451C16.6738 13.7797 13.9298 16.4102 10.5555 16.4102C7.18131 16.4102 4.43726 13.7797 4.43726 10.5451C4.43726 7.31044 7.18131 4.67991 10.5555 4.67991Z" fill="black"/>
</svg>
