<svg width="25" height="25" viewBox="0 0 25 25" fill="none" xmlns="http://www.w3.org/2000/svg">
<path d="M10.5552 18.3653C12.3651 18.3649 14.123 17.7841 15.5487 16.7152L20.0314 21.0124L21.4733 19.6302L16.9906 15.333C18.1062 13.9661 18.7125 12.2806 18.7129 10.5451C18.7129 6.2332 15.0531 2.72485 10.5552 2.72485C6.05722 2.72485 2.39746 6.2332 2.39746 10.5451C2.39746 14.857 6.05722 18.3653 10.5552 18.3653ZM10.5552 4.67991C13.9294 4.67991 16.6735 7.31044 16.6735 10.5451C16.6735 13.7797 13.9294 16.4102 10.5552 16.4102C7.18094 16.4102 4.43689 13.7797 4.43689 10.5451C4.43689 7.31044 7.18094 4.67991 10.5552 4.67991Z" fill="black"/>
</svg>
