<svg width="25" height="25" viewBox="0 0 25 25" fill="none" xmlns="http://www.w3.org/2000/svg">
<path d="M10.5557 18.3651C12.3656 18.3647 14.1234 17.7839 15.5492 16.715L20.0319 21.0122L21.4737 19.63L16.9911 15.3328C18.1066 13.9659 18.7129 12.2804 18.7134 10.5448C18.7134 6.23296 15.0536 2.72461 10.5557 2.72461C6.0577 2.72461 2.39795 6.23296 2.39795 10.5448C2.39795 14.8567 6.0577 18.3651 10.5557 18.3651ZM10.5557 4.67967C13.9299 4.67967 16.674 7.31019 16.674 10.5448C16.674 13.7795 13.9299 16.41 10.5557 16.41C7.18143 16.41 4.43738 13.7795 4.43738 10.5448C4.43738 7.31019 7.18143 4.67967 10.5557 4.67967Z" fill="black"/>
</svg>
