<svg width="25" height="25" viewBox="0 0 25 25" fill="none" xmlns="http://www.w3.org/2000/svg">
<path d="M10.5557 18.3653C12.3656 18.3649 14.1234 17.7841 15.5492 16.7152L20.0319 21.0124L21.4737 19.6302L16.9911 15.333C18.1066 13.9661 18.7129 12.2806 18.7134 10.5451C18.7134 6.2332 15.0536 2.72485 10.5557 2.72485C6.0577 2.72485 2.39795 6.2332 2.39795 10.5451C2.39795 14.857 6.0577 18.3653 10.5557 18.3653ZM10.5557 4.67991C13.9299 4.67991 16.674 7.31044 16.674 10.5451C16.674 13.7797 13.9299 16.4102 10.5557 16.4102C7.18143 16.4102 4.43738 13.7797 4.43738 10.5451C4.43738 7.31044 7.18143 4.67991 10.5557 4.67991Z" fill="black"/>
</svg>
