<svg width="25" height="25" viewBox="0 0 25 25" fill="none" xmlns="http://www.w3.org/2000/svg">
<path d="M10.5562 18.3653C12.3661 18.3649 14.1239 17.7841 15.5497 16.7152L20.0324 21.0124L21.4742 19.6302L16.9916 15.333C18.1071 13.9661 18.7134 12.2806 18.7139 10.5451C18.7139 6.2332 15.0541 2.72485 10.5562 2.72485C6.05819 2.72485 2.39844 6.2332 2.39844 10.5451C2.39844 14.857 6.05819 18.3653 10.5562 18.3653ZM10.5562 4.67991C13.9304 4.67991 16.6744 7.31044 16.6744 10.5451C16.6744 13.7797 13.9304 16.4102 10.5562 16.4102C7.18192 16.4102 4.43787 13.7797 4.43787 10.5451C4.43787 7.31044 7.18192 4.67991 10.5562 4.67991Z" fill="black"/>
</svg>
