<svg width="50" height="50" viewBox="0 0 50 50" fill="none" xmlns="http://www.w3.org/2000/svg">
<g clip-path="url(#clip0_325_1790)">
<path d="M22.5459 27.7929L20.3167 26.0637C20.366 25.7255 20.3938 25.3846 20.4 25.0429C20.4042 24.7007 20.3763 24.359 20.3167 24.022L22.525 22.2929C22.6188 22.2127 22.6823 22.1028 22.705 21.9816C22.7277 21.8603 22.7083 21.7349 22.65 21.6262L20.5667 18.022C20.5038 17.9133 20.4043 17.8306 20.286 17.7886C20.1676 17.7466 20.0382 17.7481 19.9209 17.7929L17.3375 18.8345C16.7994 18.4109 16.203 18.067 15.5667 17.8136L15.1709 15.0637C15.1561 14.942 15.0968 14.83 15.0045 14.7493C14.9122 14.6685 14.7934 14.6247 14.6708 14.6262H10.5041C10.38 14.6274 10.2602 14.6717 10.1652 14.7515C10.0702 14.8313 10.0058 14.9417 9.98325 15.0637L9.58742 17.8136C8.95744 18.0799 8.36267 18.4228 7.81658 18.8346L5.23325 17.7929C5.11562 17.7516 4.98738 17.7518 4.86987 17.7934C4.75236 17.8351 4.65268 17.9158 4.58742 18.0221L2.50408 21.6262C2.4408 21.7337 2.41859 21.8604 2.44157 21.983C2.46456 22.1056 2.53117 22.2157 2.62908 22.2929L4.83742 24.0221C4.754 24.7001 4.754 25.3857 4.83742 26.0637L2.62908 27.7929C2.53534 27.8731 2.47183 27.9829 2.4491 28.1042C2.42636 28.2255 2.44576 28.3508 2.50408 28.4596L4.58742 32.0637C4.65027 32.1724 4.74979 32.2552 4.86814 32.2972C4.98649 32.3392 5.11593 32.3377 5.23325 32.2929L7.81658 31.2512C8.35474 31.6748 8.95115 32.0186 9.58742 32.2721L9.98325 35.0221C10.0028 35.1455 10.0663 35.2577 10.162 35.3381C10.2576 35.4185 10.3791 35.4616 10.5041 35.4596H14.6708C14.7948 35.4584 14.9146 35.4141 15.0097 35.3343C15.1047 35.2544 15.169 35.1441 15.1916 35.0221L15.5874 32.2721C16.2132 32.0104 16.8016 31.6671 17.3374 31.2512L19.9416 32.2929C20.0592 32.3342 20.1875 32.334 20.305 32.2923C20.4225 32.2507 20.5222 32.17 20.5874 32.0637L22.6708 28.4596C22.7291 28.3509 22.7485 28.2255 22.7258 28.1042C22.703 27.983 22.6396 27.8731 22.5459 27.7929ZM12.5875 28.1679C11.9695 28.1679 11.3653 27.9846 10.8514 27.6412C10.3375 27.2978 9.93692 26.8098 9.7004 26.2388C9.46387 25.6677 9.40199 25.0394 9.52257 24.4332C9.64315 23.827 9.94077 23.2702 10.3778 22.8332C10.8149 22.3961 11.3717 22.0985 11.9779 21.9779C12.5841 21.8573 13.2124 21.9192 13.7834 22.1558C14.3544 22.3923 14.8425 22.7928 15.1859 23.3067C15.5292 23.8206 15.7125 24.4248 15.7125 25.0429C15.7131 25.4534 15.6326 25.86 15.4757 26.2394C15.3189 26.6188 15.0887 26.9636 14.7984 27.2538C14.5081 27.5441 14.1634 27.7743 13.7839 27.9311C13.4045 28.088 12.9981 28.1684 12.5875 28.1679Z" fill="#E63627"/>
<path d="M41.6599 0.0319214H33.3267C32.7757 0.0339236 32.248 0.254388 31.8594 0.644951C31.4708 1.03551 31.2529 1.56428 31.2536 2.11525L31.2511 6.25038H10.4109V12.5196L14.602 12.5449V10.4423L31.2485 10.417L31.2433 18.7818C31.2426 19.3328 31.4604 19.8615 31.849 20.2521C32.2376 20.6427 32.7653 20.8631 33.3162 20.8651H45.8265C46.3786 20.8636 46.9076 20.6436 47.298 20.2532C47.6884 19.8628 47.9084 19.3339 47.91 18.7818V6.28192L41.6599 0.0319214ZM40.6182 7.32359V1.59442L46.3474 7.32359H40.6182Z" fill="#E63627"/>
<path d="M41.6625 29.185H33.3294C32.7784 29.187 32.2507 29.4074 31.8621 29.798C31.4734 30.1886 31.2556 30.7173 31.2563 31.2683L31.2511 39.6229L14.6074 39.6302V37.5289H10.4163V43.7969L31.2486 43.7896L31.246 47.9349C31.2453 48.4859 31.4631 49.0146 31.8517 49.4052C32.2403 49.7958 32.768 50.0162 33.3189 50.0182H45.8294C46.3814 50.0166 46.9104 49.7966 47.3008 49.4063C47.6911 49.0159 47.9112 48.487 47.9128 47.9349V35.4349L41.6625 29.185ZM40.6209 36.4765V30.7475L46.35 36.4765H40.6209Z" fill="#E63627"/>
</g>
<defs>
<clipPath id="clip0_325_1790">
<rect width="50" height="50" rx="4" fill="white"/>
</clipPath>
</defs>
</svg>
