<svg width="26" height="230" viewBox="0 0 26 230" fill="none" xmlns="http://www.w3.org/2000/svg">
<path fill-rule="evenodd" clip-rule="evenodd" d="M13 26C20.1797 26 26 20.1797 26 13C26 5.8203 20.1797 0 13 0C5.8203 0 0 5.8203 0 13C0 20.1797 5.8203 26 13 26ZM12.8355 16.2959L17.8779 11.0959L16.4421 9.70358L12.0894 14.1923L9.5295 11.7554L8.15054 13.204L11.4281 16.324L12.1458 17.0072L12.8355 16.2959Z" fill="#E63627"/>
<path fill-rule="evenodd" clip-rule="evenodd" d="M13 77C20.1797 77 26 71.1797 26 64C26 56.8203 20.1797 51 13 51C5.8203 51 0 56.8203 0 64C0 71.1797 5.8203 77 13 77ZM12.8355 67.2959L17.8779 62.0959L16.4421 60.7036L12.0894 65.1923L9.5295 62.7554L8.15054 64.204L11.4281 67.324L12.1458 68.0072L12.8355 67.2959Z" fill="#E63627"/>
<path fill-rule="evenodd" clip-rule="evenodd" d="M13 128C20.1797 128 26 122.18 26 115C26 107.82 20.1797 102 13 102C5.8203 102 0 107.82 0 115C0 122.18 5.8203 128 13 128ZM12.8355 118.296L17.8779 113.096L16.4421 111.704L12.0894 116.192L9.5295 113.755L8.15054 115.204L11.4281 118.324L12.1458 119.007L12.8355 118.296Z" fill="#E63627"/>
<path fill-rule="evenodd" clip-rule="evenodd" d="M13 179C20.1797 179 26 173.18 26 166C26 158.82 20.1797 153 13 153C5.8203 153 0 158.82 0 166C0 173.18 5.8203 179 13 179ZM12.8355 169.296L17.8779 164.096L16.4421 162.704L12.0894 167.192L9.5295 164.755L8.15054 166.204L11.4281 169.324L12.1458 170.007L12.8355 169.296Z" fill="#E63627"/>
<path fill-rule="evenodd" clip-rule="evenodd" d="M13 230C20.1797 230 26 224.18 26 217C26 209.82 20.1797 204 13 204C5.8203 204 0 209.82 0 217C0 224.18 5.8203 230 13 230ZM12.8355 220.296L17.8779 215.096L16.4421 213.704L12.0894 218.192L9.5295 215.755L8.15054 217.204L11.4281 220.324L12.1458 221.007L12.8355 220.296Z" fill="#E63627"/>
</svg>
