<svg width="145" height="65" viewBox="0 0 145 65" fill="none" xmlns="http://www.w3.org/2000/svg">
<path d="M24.1453 1.01497C13.5549 4.05689 4.6545 12.1687 1.33092 21.8014C-0.415363 27.0402 -0.471695 35.3773 1.33092 40.2219C4.6545 49.1786 12.7099 56.6707 22.2863 59.7127C31.8064 62.7546 45.664 59.9943 55.2404 53.2345C58.733 50.7559 66.2251 43.3765 66.2251 42.4188C66.2251 40.7289 64.8168 41.1232 62.3946 43.4328C53.9448 51.5446 45.3824 55.7131 35.6933 56.6144C18.3431 58.1354 3.4152 42.8131 7.30209 27.4909C10.851 13.8023 26.7929 5.8595 40.0308 11.2673C48.3116 14.6473 57.381 22.9844 66.1124 35.2083C77.1535 50.6996 89.1521 59.8817 102.559 63.0926C120.304 67.3175 137.879 58.417 143.4 42.4188C146.836 32.6171 144.639 21.4071 137.766 13.3516C134.837 9.91539 128.19 5.52151 123.627 3.88789C114.163 0.620651 102.108 2.36693 91.7434 8.45076C87.8565 10.7604 78.0548 20.1114 78.0548 21.4634C78.0548 23.1534 79.1251 22.6464 82.7303 19.3228C87.5749 14.8726 93.0954 11.38 98.5032 9.4084C102.334 7.94378 104.193 7.60579 109.375 7.38046C114.783 7.15513 116.191 7.32413 119.29 8.3381C129.486 11.718 136.471 20.0551 137.09 29.4625C137.766 40.1092 131.232 49.235 120.698 52.4459C113.262 54.6991 105.263 53.1782 97.3766 48.052C92.701 45.0101 82.8993 34.9267 78.3928 28.5049C65.7181 10.4224 48.6496 -0.111664 32.4261 0.000999451C29.6658 0.000999451 26.1732 0.451656 24.1453 1.01497Z" fill="#E63627"/>
</svg>
