<svg width="145" height="65" viewBox="0 0 145 65" fill="none" xmlns="http://www.w3.org/2000/svg">
<path d="M24.1453 1.01522C13.5549 4.05713 4.6545 12.1689 1.33092 21.8016C-0.415363 27.0405 -0.471695 35.3776 1.33092 40.2221C4.6545 49.1789 12.7099 56.671 22.2863 59.7129C31.8064 62.7548 45.664 59.9946 55.2404 53.2348C58.733 50.7562 66.2251 43.3767 66.2251 42.4191C66.2251 40.7291 64.8168 41.1234 62.3946 43.433C53.9448 51.5448 45.3824 55.7134 35.6933 56.6147C18.3431 58.1356 3.4152 42.8134 7.30209 27.4911C10.851 13.8025 26.7929 5.85975 40.0308 11.2676C48.3116 14.6475 57.381 22.9846 66.1124 35.2086C77.1535 50.6998 89.1521 59.8819 102.559 63.0928C120.304 67.3177 137.879 58.4173 143.4 42.4191C146.836 32.6173 144.639 21.4073 137.766 13.3519C134.837 9.91563 128.19 5.52176 123.627 3.88814C114.163 0.620895 102.108 2.36718 91.7434 8.451C87.8565 10.7606 78.0548 20.1117 78.0548 21.4636C78.0548 23.1536 79.1251 22.6466 82.7303 19.323C87.5749 14.8728 93.0954 11.3803 98.5032 9.40865C102.334 7.94402 104.193 7.60603 109.375 7.3807C114.783 7.15538 116.191 7.32437 119.29 8.33834C129.486 11.7182 136.471 20.0553 137.09 29.4628C137.766 40.1095 131.232 49.2352 120.698 52.4461C113.262 54.6994 105.263 53.1784 97.3766 48.0522C92.701 45.0103 82.8993 34.9269 78.3928 28.5051C65.7181 10.4226 48.6496 -0.11142 32.4261 0.00124359C29.6658 0.00124359 26.1732 0.4519 24.1453 1.01522Z" fill="#E63627"/>
</svg>
