<svg width="145" height="65" viewBox="0 0 145 65" fill="none" xmlns="http://www.w3.org/2000/svg">
<path d="M24.1453 1.01485C13.5549 4.05677 4.6545 12.1685 1.33092 21.8013C-0.415363 27.0401 -0.471695 35.3772 1.33092 40.2218C4.6545 49.1785 12.7099 56.6706 22.2863 59.7125C31.8064 62.7545 45.664 59.9942 55.2404 53.2344C58.733 50.7558 66.2251 43.3763 66.2251 42.4187C66.2251 40.7287 64.8168 41.1231 62.3946 43.4327C53.9448 51.5444 45.3824 55.713 35.6933 56.6143C18.3431 58.1353 3.4152 42.813 7.30209 27.4908C10.851 13.8022 26.7929 5.85938 40.0308 11.2672C48.3116 14.6471 57.381 22.9842 66.1124 35.2082C77.1535 50.6995 89.1521 59.8815 102.559 63.0924C120.304 67.3173 137.879 58.4169 143.4 42.4187C146.836 32.617 144.639 21.4069 137.766 13.3515C134.837 9.91526 128.19 5.52139 123.627 3.88777C114.163 0.620529 102.108 2.36681 91.7434 8.45064C87.8565 10.7602 78.0548 20.1113 78.0548 21.4633C78.0548 23.1532 79.1251 22.6462 82.7303 19.3227C87.5749 14.8725 93.0954 11.3799 98.5032 9.40828C102.334 7.94365 104.193 7.60566 109.375 7.38034C114.783 7.15501 116.191 7.32401 119.29 8.33797C129.486 11.7179 136.471 20.055 137.09 29.4624C137.766 40.1091 131.232 49.2348 120.698 52.4457C113.262 54.699 105.263 53.1781 97.3766 48.0519C92.701 45.01 82.8993 34.9266 78.3928 28.5047C65.7181 10.4223 48.6496 -0.111786 32.4261 0.00087738C29.6658 0.00087738 26.1732 0.451534 24.1453 1.01485Z" fill="#E63627"/>
</svg>
