<svg width="50" height="50" viewBox="0 0 50 50" fill="none" xmlns="http://www.w3.org/2000/svg">
<path d="M25 4.16669C13.5 4.16669 4.16669 13.5 4.16669 25C4.16669 36.5 13.5 45.8334 25 45.8334C36.5 45.8334 45.8334 36.5 45.8334 25C45.8334 13.5 36.5 4.16669 25 4.16669ZM25 41.6667C15.8125 41.6667 8.33335 34.1875 8.33335 25C8.33335 15.8125 15.8125 8.33335 25 8.33335C34.1875 8.33335 41.6667 15.8125 41.6667 25C41.6667 34.1875 34.1875 41.6667 25 41.6667ZM25.6459 23.2084C21.9584 22.2709 20.7709 21.25 20.7709 19.7292C20.7709 17.9792 22.4167 16.75 25.1459 16.75C28.0209 16.75 29.1042 18.125 29.1875 20.1667H32.75C32.6459 17.375 30.9375 14.8125 27.5625 13.9792V10.4167H22.7084V13.9375C19.5625 14.6042 17.0417 16.6459 17.0417 19.7917C17.0417 23.5209 20.1459 25.3959 24.6667 26.4792C28.7292 27.4375 29.5417 28.875 29.5417 30.375C29.5417 31.4792 28.7292 33.2709 25.1667 33.2709C21.8334 33.2709 20.5209 31.7709 20.3334 29.8542H16.75C16.9584 33.3959 19.5834 35.3958 22.7084 36.0417V39.5834H27.5834V36.1042C30.75 35.5 33.25 33.6875 33.2709 30.3334C33.25 25.75 29.3125 24.1667 25.6459 23.2084Z" fill="#E63627"/>
</svg>
