<svg width="50" height="50" viewBox="0 0 50 50" fill="none" xmlns="http://www.w3.org/2000/svg">
<path d="M38.75 40.625H43.75V44.7917H31.25V32.2916H35.4166V37.9791C39.2291 34.9166 41.6666 30.25 41.6666 25C41.6666 16.5208 35.2916 9.49998 27.0833 8.47915V4.27081C37.6041 5.31248 45.8333 14.1875 45.8333 25C45.8333 31.2291 43.0833 36.8125 38.75 40.625ZM8.33329 25C8.33329 19.75 10.7708 15.0625 14.5833 12.0208V17.7083H18.75V5.20831H6.24996V9.37498H11.25C6.91663 13.1875 4.16663 18.7708 4.16663 25C4.16663 35.8125 12.3958 44.6875 22.9166 45.7292V41.5208C14.7083 40.5 8.33329 33.4791 8.33329 25ZM33.8333 16.8958L22.0416 28.6875L16.1458 22.7916L13.2083 25.7291L22.0416 34.5625L36.7708 19.8333L33.8333 16.8958Z" fill="#E63627"/>
</svg>
