<svg width="50" height="50" viewBox="0 0 50 50" fill="none" xmlns="http://www.w3.org/2000/svg">
<path d="M22.9166 31.25H27.0833V35.4166H22.9166V31.25ZM22.9166 14.5833H27.0833V27.0833H22.9166V14.5833ZM24.9791 4.16663C13.4791 4.16663 4.16663 13.5 4.16663 25C4.16663 36.5 13.4791 45.8333 24.9791 45.8333C36.5 45.8333 45.8333 36.5 45.8333 25C45.8333 13.5 36.5 4.16663 24.9791 4.16663ZM25 41.6666C15.7916 41.6666 8.33329 34.2083 8.33329 25C8.33329 15.7916 15.7916 8.33329 25 8.33329C34.2083 8.33329 41.6666 15.7916 41.6666 25C41.6666 34.2083 34.2083 41.6666 25 41.6666Z" fill="#E63627"/>
</svg>
