<svg width="871" height="871" viewBox="0 0 871 871" fill="none" xmlns="http://www.w3.org/2000/svg">
<path opacity="0.17" d="M644.848 590.773C644.848 590.773 690.409 493.722 639.021 501.751C587.633 509.78 595.662 442.824 624.568 393.198C653.474 343.572 594.86 256.052 516.975 320.288C439.09 384.523 419.016 255.25 321.861 256.053C224.706 256.856 267.201 333.001 317.013 376.025C366.826 419.049 208.884 448.343 226.195 483.706C243.506 519.068 183.05 600.638 278.551 598.97C374.053 597.301 644.848 590.773 644.848 590.773Z" fill="#E63627"/>
<path d="M435.611 621.73C573.376 621.73 685.057 612.757 685.057 601.688C685.057 590.618 573.376 581.645 435.611 581.645C297.846 581.645 186.166 590.618 186.166 601.688C186.166 612.757 297.846 621.73 435.611 621.73Z" fill="#E2E2E2"/>
<path opacity="0.61" d="M305.947 348.952C306.036 348.152 306.085 347.34 306.085 346.517C306.085 334.445 296.299 324.659 284.227 324.659C274.656 324.659 266.528 330.812 263.569 339.376C261.301 338.694 258.865 338.845 256.699 339.802C254.534 340.758 252.781 342.457 251.758 344.592C250.602 344.329 249.42 344.195 248.234 344.195C239.461 344.195 232.351 351.307 232.351 360.079C232.351 368.827 239.423 375.921 248.162 375.961V376.025H303.352C310.897 376.025 317.013 369.909 317.013 362.364C317.014 355.706 312.25 350.164 305.947 348.952ZM653.753 419.203C653.811 418.684 653.843 418.157 653.843 417.623C653.843 409.787 647.491 403.435 639.655 403.435C633.444 403.435 628.168 407.429 626.247 412.988C624.775 412.545 623.194 412.643 621.788 413.264C620.382 413.884 619.245 414.987 618.58 416.373C617.83 416.202 617.063 416.115 616.293 416.115C610.599 416.115 605.983 420.731 605.983 426.425C605.983 432.103 610.573 436.707 616.245 436.733V436.775H652.069C656.965 436.775 660.936 432.805 660.936 427.908C660.937 423.587 657.845 419.991 653.753 419.203Z" fill="#E63627"/>
<path d="M488.621 576.386H459.326V492.227C459.326 487.54 455.491 483.705 450.804 483.705C446.117 483.705 442.282 487.54 442.282 492.227V576.385H412.986C403.573 576.385 395.941 584.016 395.941 593.43H505.666C505.666 584.017 498.035 576.386 488.621 576.386Z" fill="#232536"/>
<path d="M290.361 535.212V358.232C290.361 356.635 290.995 355.104 292.124 353.975C293.253 352.846 294.784 352.212 296.38 352.212H605.227C606.823 352.212 608.354 352.846 609.483 353.975C610.612 355.104 611.246 356.635 611.246 358.231V535.211C611.246 536.001 611.09 536.784 610.788 537.515C610.485 538.245 610.042 538.908 609.483 539.467C608.924 540.026 608.26 540.47 607.53 540.772C606.8 541.075 606.017 541.231 605.226 541.231H296.379C294.783 541.231 293.252 540.596 292.124 539.468C290.995 538.339 290.361 536.808 290.361 535.212Z" fill="#232536"/>
<path d="M603.622 359.688V531.609H297.984V359.688H603.622Z" fill="white"/>
<path d="M293.417 583.605L293.44 589.973C293.445 591.268 293.269 592.558 292.917 593.805L292.363 595.766C291.908 597.377 293.119 598.975 294.792 598.969C299.13 598.954 306.543 598.965 308.453 598.968C308.766 598.969 309.073 598.758 309.099 598.446C309.261 596.587 303.89 595.342 299.846 593.776C296.765 592.583 296.929 587.046 297.309 583.812C297.452 582.59 296.433 581.551 295.207 581.652C294.718 581.693 294.262 581.916 293.93 582.278C293.598 582.64 293.415 583.114 293.417 583.605ZM263.606 581.818L261.411 589.103C261.315 589.425 261.169 589.731 260.981 590.01L259.426 592.32C259.196 592.661 259.05 593.051 258.998 593.459C258.946 593.867 258.991 594.281 259.129 594.669C259.266 595.056 259.493 595.406 259.79 595.69C260.087 595.975 260.447 596.185 260.84 596.305C260.84 596.305 263.977 597.408 267.21 598.471C270.52 599.558 274.682 598.649 274.682 597.776C274.682 595.836 272.873 597.376 269.842 595.349C268.827 594.67 267.778 593.96 266.845 593.227C264.236 591.179 266.514 585.997 268.111 583.077C268.685 582.028 268.075 580.725 266.905 580.476L266.149 580.314C265.614 580.2 265.055 580.291 264.584 580.57C264.113 580.849 263.764 581.294 263.606 581.818Z" fill="#FAB9AF"/>
<path d="M286.019 496.606L310.057 494.589C310.057 494.589 312.477 512.083 306.402 543.754C303.552 558.605 297.615 586.986 297.615 586.986C296.143 587.631 294.647 587.792 293.123 587.412C293.123 587.412 292.672 574.893 292.396 561.412C292.132 548.482 292.061 534.667 291.237 530.146C289.554 520.913 286.019 496.606 286.019 496.606Z" fill="#232536"/>
<path d="M290.98 496.911C293.462 510.23 299.006 530.147 288.327 548.857C277.647 567.568 266.431 587.02 266.431 587.02C264.986 587.079 263.675 586.555 262.457 585.631C262.457 585.631 264.33 577.148 267.036 567.244C270.133 555.913 274.055 542.585 272.937 535.637C270.843 522.614 268.438 505.27 269.166 496.847C269.896 488.425 289.675 489.908 290.98 496.911ZM309.028 449.787L327.971 460.201L346.994 430.264L323.985 422.271L309.028 449.787Z" fill="#232536"/>
<path d="M310.226 448.885L327.942 458.622L345.732 430.628L324.215 423.153L310.226 448.885Z" fill="#E2D2CA"/>
<path d="M303.739 443.649C303.739 443.649 307.036 442.073 308.483 441.248C309.93 440.424 313.653 439.292 313.954 439.024C314.254 438.754 324.989 438.092 325.64 437.531C326.291 436.97 326.924 438.848 324.142 439.457C321.359 440.067 317.488 441.557 317.276 442.645C317.065 443.733 320.134 443.99 320.445 444.885C320.756 445.78 320.358 445.581 319.918 445.771C319.478 445.964 316.267 444.186 314.854 444.691C313.442 445.196 311.284 444.496 310.202 444.867C309.119 445.237 303.857 447.008 303.857 447.008L303.739 443.649Z" fill="#FAB9AF"/>
<path d="M309.689 445.978L311.387 445.35C311.387 445.35 309.27 440.379 308.345 440.5C307.28 440.641 305.952 440.991 305.952 440.991L309.689 445.978Z" fill="#EAD8CF"/>
<path d="M328.892 456.441C328.892 456.441 331.662 453.949 333.002 452.905C334.342 451.862 336.859 448.795 337.229 448.617C337.599 448.437 342.403 438.578 343.187 438.184C343.969 437.788 342.446 436.46 340.788 438.845C339.13 441.231 336.219 444.298 335.111 444.075C334.004 443.85 334.956 440.857 334.233 440.217C333.51 439.574 333.545 440.026 333.192 440.366C332.84 440.708 333.265 444.426 332.239 445.56C331.213 446.692 331.032 449.001 330.262 449.875C329.491 450.75 325.773 455.022 325.773 455.022L328.892 456.441ZM284.729 394.919C284.729 394.919 293.042 391.814 296.874 398.142C300.706 404.469 300.337 417.134 296.147 418.693C291.958 420.25 285.663 419.436 283.519 415.477C281.374 411.518 279.437 405.796 279.531 401.97C279.623 398.144 282.546 396.023 284.729 394.919Z" fill="#FAB9AF"/>
<path d="M295.245 418.982C295.245 418.982 294.574 424.948 295.146 426.055C295.717 427.159 284.769 426.055 284.769 426.055C284.769 426.055 283.781 417.454 282.036 412.372C280.291 407.293 295.245 418.982 295.245 418.982Z" fill="#FAB9AF"/>
<path d="M282.036 412.372C282.036 412.372 282.439 418.775 285.634 418.274C288.828 417.774 293.106 408.411 294.44 407.946C295.774 407.478 295.787 406.695 295.787 406.695L296.621 407.915L298.038 408.005C298.038 408.005 296.746 404.203 298.696 402.651C300.646 401.101 296.672 390.344 286.427 393.924C286.427 393.924 278.557 396.095 278.843 400.569C279.13 405.046 280.276 410.144 282.036 412.372Z" fill="#232536"/>
<path d="M296.444 427.387C296.444 427.387 296.408 425.276 295.45 425.071C294.493 424.87 284.882 423.946 283.707 424.408V426.87C283.707 426.87 285.972 428.262 296.444 427.387Z" fill="#E2D2CA"/>
<path d="M295.575 405.067C295.396 404.316 293.487 402.171 292.756 404.469C292.025 406.765 293.861 409.856 294.884 409.589C295.909 409.326 296.029 406.971 295.575 405.067Z" fill="#EEA886"/>
<path d="M269.32 495.992C269.32 495.992 272.85 507.423 281.499 508.723C299.217 511.386 311.249 499.967 311.386 498.94C311.524 497.912 301.647 476.367 301.921 474.451C302.194 472.534 304.646 445.648 304.646 445.648C304.754 447.52 310.082 467.962 312.383 472.128C313.214 473.633 316.003 478.35 317.347 477.277C323.854 472.083 333.929 452.506 334.569 452.341C334.031 452.107 329.794 450.157 329.198 449.959C328.678 449.784 323.984 454.753 321.139 457.835C319.871 459.208 318.971 460.206 318.971 460.206C318.15 458.357 315.158 446.717 314.229 442.687C312.132 433.602 312.454 433.224 312.454 433.224C306.095 431.301 296.443 427.384 296.443 427.384L283.706 426.867C283.706 426.867 272.017 429.439 267.414 431.518C266.977 431.715 266.975 441.947 265.777 444.629L269.594 452.681C269.594 452.681 277.509 468.425 277.967 475.52C278.178 478.778 269.32 495.992 269.32 495.992Z" fill="#FFBE55"/>
<path d="M265.249 457.915C265.581 458.989 267.091 459.894 268.072 460.292C268.718 460.553 269.426 460.624 270.112 460.497L270.611 460.405V460.403L279.339 458.783C279.339 458.783 281.248 436.789 267.416 431.519C267.049 431.64 262.194 448.067 265.249 457.915Z" fill="#FFBE55"/>
<path d="M282.362 395.665C282.362 395.665 271.903 396.725 282.176 412.604L282.362 395.665Z" fill="#3A3F47"/>
<path d="M338.235 428.654L339.342 426.752L330.62 423.742L329.513 425.636L338.235 428.654Z" fill="#232536"/>
<path d="M297.984 359.688H603.622V376.024H297.984V359.688Z" fill="#E63627"/>
<path d="M571.603 367.856C571.603 367.344 571.502 366.836 571.306 366.362C571.11 365.888 570.822 365.458 570.46 365.095C570.097 364.733 569.667 364.445 569.193 364.249C568.719 364.052 568.211 363.951 567.698 363.951C567.186 363.951 566.678 364.052 566.204 364.249C565.73 364.445 565.3 364.733 564.937 365.095C564.575 365.458 564.287 365.888 564.091 366.362C563.894 366.836 563.793 367.344 563.793 367.856C563.793 368.892 564.205 369.885 564.937 370.618C565.67 371.35 566.663 371.761 567.698 371.761C568.734 371.761 569.727 371.35 570.46 370.618C571.192 369.885 571.603 368.892 571.603 367.856ZM583.713 367.856C583.713 366.821 583.301 365.827 582.569 365.095C581.837 364.363 580.843 363.951 579.808 363.951C578.772 363.951 577.779 364.363 577.047 365.095C576.314 365.827 575.903 366.821 575.903 367.856C575.903 368.892 576.314 369.885 577.047 370.618C577.779 371.35 578.772 371.761 579.808 371.761C580.843 371.761 581.837 371.35 582.569 370.618C583.301 369.885 583.713 368.892 583.713 367.856ZM595.822 367.856C595.822 366.821 595.411 365.827 594.678 365.095C593.946 364.363 592.953 363.951 591.917 363.951C590.881 363.951 589.888 364.363 589.156 365.095C588.424 365.827 588.012 366.821 588.012 367.856C588.012 368.892 588.424 369.885 589.156 370.618C589.888 371.35 590.881 371.761 591.917 371.761C592.953 371.761 593.946 371.35 594.678 370.618C595.411 369.885 595.822 368.892 595.822 367.856Z" fill="white"/>
<path d="M285.061 394.157C285.061 394.157 273.2 393.757 277.658 407.942C282.116 422.127 286.157 437.969 280.858 440.887C280.858 440.887 290.14 439.533 290.076 429.224C290.012 418.915 294.208 412.603 294.208 412.603L298.038 408.005C298.038 408.005 292.349 393.621 285.694 394.157" fill="#232536"/>
<path opacity="0.1" d="M447 510C479.033 510 505 484.033 505 452C505 419.967 479.033 394 447 394C414.967 394 389 419.967 389 452C389 484.033 414.967 510 447 510Z" fill="#FFBE55"/>
<path d="M453.498 512.111C484.212 512.111 509.111 487.212 509.111 456.498C509.111 425.784 484.212 400.885 453.498 400.885C422.784 400.885 397.885 425.784 397.885 456.498C397.885 487.212 422.784 512.111 453.498 512.111Z" fill="#FFBE55" fill-opacity="0.2" stroke="#FFBE55" stroke-miterlimit="10"/>
<path d="M481 442.222H471.341C469.794 439.536 467.662 437.228 465.084 435.471L470.688 429.857L465.841 425L458.381 432.474C456.8 432.096 455.184 431.889 453.5 431.889C451.816 431.889 450.2 432.096 448.653 432.474L441.159 425L436.312 429.857L441.881 435.471C439.337 437.228 437.206 439.536 435.659 442.222H426V449.111H433.184C433.013 450.248 432.875 451.384 432.875 452.556V456H426V462.889H432.875V466.333C432.875 467.504 433.013 468.641 433.184 469.778H426V476.667H435.659C439.234 482.832 445.869 487 453.5 487C461.131 487 467.766 482.832 471.341 476.667H481V469.778H473.816C473.987 468.641 474.125 467.504 474.125 466.333V462.889H481V456H474.125V452.556C474.125 451.384 473.987 450.248 473.816 449.111H481V442.222ZM460.375 469.778H446.625V462.889H460.375V469.778ZM460.375 456H446.625V449.111H460.375V456Z" fill="#E63627"/>
</svg>
