<svg width="89" height="19" viewBox="0 0 89 19" fill="none" xmlns="http://www.w3.org/2000/svg">
<g clip-path="url(#clip0_111_816)">
<path d="M17.6406 9.33496C17.6406 4.46363 13.6916 0.514648 8.82031 0.514648C3.94899 0.514648 0 4.46363 0 9.33496C0 13.7374 3.22544 17.3864 7.44214 18.0481V11.8846H5.20261V9.33496H7.44214V7.39174C7.44214 5.18115 8.75898 3.96008 10.7737 3.96008C11.7384 3.96008 12.7481 4.13236 12.7481 4.13236V6.30298H11.6359C10.5403 6.30298 10.1985 6.98294 10.1985 7.68115V9.33496H12.6447L12.2537 11.8846H10.1985V18.0481C14.4152 17.3864 17.6406 13.7374 17.6406 9.33496Z" fill="white"/>
</g>
<g clip-path="url(#clip1_111_816)">
<path d="M40.8308 16.5015C47.486 16.5015 51.1271 10.9864 51.1271 6.20517C51.1271 6.05012 51.1237 5.89163 51.1168 5.73659C51.8251 5.22435 52.4364 4.58987 52.9219 3.86296C52.2622 4.15646 51.5618 4.34814 50.8446 4.43146C51.5998 3.97881 52.1652 3.26772 52.4361 2.43C51.7257 2.85102 50.9488 3.14801 50.1387 3.30825C49.5928 2.72827 48.8711 2.34426 48.0852 2.21559C47.2992 2.08691 46.4927 2.22073 45.7905 2.59636C45.0882 2.972 44.5292 3.56852 44.1999 4.2937C43.8707 5.01888 43.7895 5.83233 43.9689 6.60828C42.5304 6.5361 41.1232 6.16242 39.8384 5.51148C38.5536 4.86053 37.42 3.94686 36.5109 2.82968C36.0489 3.62624 35.9075 4.56884 36.1155 5.4659C36.3235 6.36296 36.8653 7.14717 37.6307 7.65914C37.0561 7.6409 36.494 7.48619 35.991 7.20779V7.25258C35.9905 8.08852 36.2795 8.89884 36.8089 9.54579C37.3382 10.1928 38.0753 10.6364 38.8948 10.8014C38.3625 10.947 37.8038 10.9682 37.262 10.8634C37.4933 11.5823 37.9432 12.2111 38.549 12.662C39.1548 13.1129 39.8863 13.3634 40.6413 13.3786C39.3595 14.3855 37.7761 14.9316 36.1461 14.929C35.857 14.9286 35.5682 14.9108 35.2812 14.8759C36.9372 15.9383 38.8634 16.5025 40.8308 16.5015Z" fill="white"/>
</g>
<g clip-path="url(#clip2_111_816)">
<path d="M86.8973 0.514648H71.8649C71.1448 0.514648 70.5625 1.08315 70.5625 1.78601V16.8805C70.5625 17.5833 71.1448 18.1553 71.8649 18.1553H86.8973C87.6174 18.1553 88.2031 17.5833 88.2031 16.8839V1.78601C88.2031 1.08315 87.6174 0.514648 86.8973 0.514648ZM75.7961 15.5471H73.1776V7.12644H75.7961V15.5471ZM74.4869 5.97911C73.6462 5.97911 72.9674 5.30036 72.9674 4.46312C72.9674 3.62588 73.6462 2.94713 74.4869 2.94713C75.3241 2.94713 76.0028 3.62588 76.0028 4.46312C76.0028 5.29691 75.3241 5.97911 74.4869 5.97911ZM85.5949 15.5471H82.9798V11.4539C82.9798 10.4788 82.9626 9.22126 81.6189 9.22126C80.258 9.22126 80.0512 10.2859 80.0512 11.385V15.5471H77.4396V7.12644H79.9479V8.27721H79.9823C80.3303 7.61569 81.1848 6.91627 82.4561 6.91627C85.1057 6.91627 85.5949 8.65966 85.5949 10.9268V15.5471Z" fill="white"/>
</g>
<defs>
<clipPath id="clip0_111_816">
<rect width="17.6406" height="17.6406" fill="white" transform="translate(0 0.514648)"/>
</clipPath>
<clipPath id="clip1_111_816">
<rect width="17.6406" height="17.6406" fill="white" transform="translate(35.2812 0.514648)"/>
</clipPath>
<clipPath id="clip2_111_816">
<rect width="17.6406" height="17.6406" fill="white" transform="translate(70.5625 0.514648)"/>
</clipPath>
</defs>
</svg>
