<svg width="29" height="13" viewBox="0 0 29 13" fill="none" xmlns="http://www.w3.org/2000/svg">
<path d="M4.82906 0.205698C2.71098 0.822248 0.930899 2.46638 0.266184 4.41879C-0.0830726 5.48062 -0.0943389 7.17042 0.266184 8.15233C0.930899 9.96773 2.54199 11.4863 4.45727 12.1028C6.36128 12.7194 9.1328 12.1599 11.0481 10.7898C11.7466 10.2874 13.245 8.79172 13.245 8.59762C13.245 8.25509 12.9634 8.33502 12.4789 8.80314C10.789 10.4473 9.07647 11.2922 7.13866 11.4749C3.66862 11.7831 0.683039 8.67754 1.46042 5.57196C2.1702 2.79749 5.35858 1.18761 8.00617 2.2837C9.66232 2.96875 11.4762 4.65855 13.2225 7.13617C15.4307 10.276 17.8304 12.1371 20.5118 12.7879C24.0607 13.6442 27.5758 11.8402 28.6799 8.59762C29.3672 6.61096 28.9278 4.33886 27.5533 2.70615C26.9674 2.00968 25.638 1.1191 24.7254 0.787994C22.8327 0.125775 20.4217 0.479719 18.3487 1.71282C17.5713 2.18094 15.611 4.07626 15.611 4.35028C15.611 4.69281 15.825 4.59005 16.5461 3.91641C17.515 3.01442 18.6191 2.30653 19.7006 1.90692C20.4668 1.61006 20.8385 1.54156 21.875 1.49588C22.9566 1.45021 23.2383 1.48447 23.8579 1.68998C25.8971 2.37504 27.2942 4.06484 27.4181 5.97158C27.5533 8.1295 26.2464 9.97915 24.1396 10.6299C22.6524 11.0867 21.0526 10.7784 19.4753 9.73938C18.5402 9.12283 16.5799 7.07908 15.6786 5.77748C13.1436 2.11243 9.72992 -0.0226526 6.48521 0.000182152C5.93316 0.000182152 5.23465 0.0915222 4.82906 0.205698Z" fill="#E63627"/>
</svg>
