<svg width="29" height="13" viewBox="0 0 29 13" fill="none" xmlns="http://www.w3.org/2000/svg">
<path d="M4.82906 0.205759C2.71098 0.822309 0.930899 2.46644 0.266184 4.41885C-0.0830726 5.48068 -0.0943389 7.17048 0.266184 8.1524C0.930899 9.96779 2.54199 11.4863 4.45727 12.1029C6.36128 12.7194 9.1328 12.16 11.0481 10.7899C11.7466 10.2875 13.245 8.79178 13.245 8.59768C13.245 8.25515 12.9634 8.33508 12.4789 8.8032C10.789 10.4473 9.07647 11.2922 7.13866 11.4749C3.66862 11.7832 0.683039 8.6776 1.46042 5.57202C2.1702 2.79755 5.35858 1.18767 8.00617 2.28376C9.66232 2.96881 11.4762 4.65862 13.2225 7.13623C15.4307 10.2761 17.8304 12.1371 20.5118 12.7879C24.0607 13.6443 27.5758 11.8403 28.6799 8.59768C29.3672 6.61102 28.9278 4.33892 27.5533 2.70621C26.9674 2.00974 25.638 1.11917 24.7254 0.788055C22.8327 0.125836 20.4217 0.47978 18.3487 1.71288C17.5713 2.181 15.611 4.07632 15.611 4.35034C15.611 4.69287 15.825 4.59011 16.5461 3.91647C17.515 3.01448 18.6191 2.30659 19.7006 1.90698C20.4668 1.61012 20.8385 1.54162 21.875 1.49595C22.9566 1.45028 23.2383 1.48453 23.8579 1.69004C25.8971 2.3751 27.2942 4.0649 27.4181 5.97164C27.5533 8.12956 26.2464 9.97921 24.1396 10.63C22.6524 11.0867 21.0526 10.7784 19.4753 9.73944C18.5402 9.12289 16.5799 7.07914 15.6786 5.77754C13.1436 2.11249 9.72992 -0.0225916 6.48521 0.000243187C5.93316 0.000243187 5.23465 0.0915833 4.82906 0.205759Z" fill="#E63627"/>
</svg>
