<svg width="29" height="13" viewBox="0 0 29 13" fill="none" xmlns="http://www.w3.org/2000/svg">
<path d="M4.82906 0.205729C2.71098 0.822278 0.930899 2.46641 0.266184 4.41882C-0.0830726 5.48065 -0.0943389 7.17045 0.266184 8.15236C0.930899 9.96776 2.54199 11.4863 4.45727 12.1028C6.36128 12.7194 9.1328 12.1599 11.0481 10.7898C11.7466 10.2875 13.245 8.79175 13.245 8.59765C13.245 8.25512 12.9634 8.33505 12.4789 8.80317C10.789 10.4473 9.07647 11.2922 7.13866 11.4749C3.66862 11.7832 0.683039 8.67757 1.46042 5.57199C2.1702 2.79752 5.35858 1.18764 8.00617 2.28373C9.66232 2.96878 11.4762 4.65858 13.2225 7.1362C15.4307 10.276 17.8304 12.1371 20.5118 12.7879C24.0607 13.6442 27.5758 11.8402 28.6799 8.59765C29.3672 6.61099 28.9278 4.33889 27.5533 2.70618C26.9674 2.00971 25.638 1.11913 24.7254 0.788025C22.8327 0.125806 20.4217 0.47975 18.3487 1.71285C17.5713 2.18097 15.611 4.07629 15.611 4.35031C15.611 4.69284 15.825 4.59008 16.5461 3.91644C17.515 3.01445 18.6191 2.30656 19.7006 1.90695C20.4668 1.61009 20.8385 1.54159 21.875 1.49592C22.9566 1.45024 23.2383 1.4845 23.8579 1.69001C25.8971 2.37507 27.2942 4.06487 27.4181 5.97161C27.5533 8.12953 26.2464 9.97918 24.1396 10.63C22.6524 11.0867 21.0526 10.7784 19.4753 9.73941C18.5402 9.12286 16.5799 7.07911 15.6786 5.77751C13.1436 2.11246 9.72992 -0.0226221 6.48521 0.000212669C5.93316 0.000212669 5.23465 0.0915527 4.82906 0.205729Z" fill="#E63627"/>
</svg>
