<svg width="29" height="14" viewBox="0 0 29 14" fill="none" xmlns="http://www.w3.org/2000/svg">
<path d="M4.82906 0.565683C2.71098 1.18223 0.930899 2.82636 0.266184 4.77877C-0.0830726 5.84061 -0.0943389 7.53041 0.266184 8.51232C0.930899 10.3277 2.54199 11.8463 4.45727 12.4628C6.36128 13.0794 9.1328 12.5199 11.0481 11.1498C11.7466 10.6474 13.245 9.1517 13.245 8.95761C13.245 8.61508 12.9634 8.695 12.4789 9.16312C10.789 10.8073 9.07647 11.6522 7.13866 11.8348C3.66862 12.1431 0.683039 9.03753 1.46042 5.93195C2.1702 3.15747 5.35858 1.5476 8.00617 2.64368C9.66232 3.32874 11.4762 5.01854 13.2225 7.49616C15.4307 10.636 17.8304 12.4971 20.5118 13.1479C24.0607 14.0042 27.5758 12.2002 28.6799 8.95761C29.3672 6.97095 28.9278 4.69885 27.5533 3.06613C26.9674 2.36966 25.638 1.47909 24.7254 1.14798C22.8327 0.485761 20.4217 0.839705 18.3487 2.0728C17.5713 2.54092 15.611 4.43624 15.611 4.71027C15.611 5.05279 15.825 4.95003 16.5461 4.2764C17.515 3.37441 18.6191 2.66652 19.7006 2.2669C20.4668 1.97005 20.8385 1.90154 21.875 1.85587C22.9566 1.8102 23.2383 1.84445 23.8579 2.04997C25.8971 2.73502 27.2942 4.42483 27.4181 6.33156C27.5533 8.48948 26.2464 10.3391 24.1396 10.9899C22.6524 11.4466 21.0526 11.1384 19.4753 10.0994C18.5402 9.48281 16.5799 7.43907 15.6786 6.13746C13.1436 2.47242 9.72992 0.337333 6.48521 0.360168C5.93316 0.360168 5.23465 0.451508 4.82906 0.565683Z" fill="#E63627"/>
</svg>
