<svg width="38" height="49" viewBox="0 0 38 49" fill="none" xmlns="http://www.w3.org/2000/svg">
<path fill-rule="evenodd" clip-rule="evenodd" d="M22.3228 3.60035C22.3228 5.07712 21.4337 6.34623 20.1615 6.90157V10.082H36.0436C36.8168 10.082 37.4436 10.7088 37.4436 11.482V34.6045C37.4436 35.3777 36.8168 36.0045 36.0436 36.0045H25.9229V40.3243H11.5215V36.0045H1.4C0.626803 36.0045 0 35.3777 0 34.6045V11.482C0 10.7088 0.626801 10.082 1.4 10.082H17.2812V6.90067C16.0102 6.34486 15.1221 5.07632 15.1221 3.60035C15.1221 1.61193 16.734 0 18.7224 0C20.7108 0 22.3228 1.61193 22.3228 3.60035ZM8.60006 40.325C7.82686 40.325 7.20006 40.9518 7.20006 41.725V47.5658C7.20006 48.339 7.82686 48.9658 8.60006 48.9658H28.8423C29.6155 48.9658 30.2423 48.339 30.2423 47.5658V41.725C30.2423 40.9518 29.6155 40.325 28.8423 40.325H8.60006ZM14.4014 23.0422C14.4014 24.6329 13.1118 25.9224 11.5211 25.9224C9.93035 25.9224 8.64081 24.6329 8.64081 23.0422C8.64081 21.4514 9.93035 20.1619 11.5211 20.1619C13.1118 20.1619 14.4014 21.4514 14.4014 23.0422ZM25.9232 25.9227C27.514 25.9227 28.8035 24.6331 28.8035 23.0424C28.8035 21.4517 27.514 20.1621 25.9232 20.1621C24.3325 20.1621 23.043 21.4517 23.043 23.0424C23.043 24.6331 24.3325 25.9227 25.9232 25.9227Z" fill="#E63627"/>
</svg>
