<svg width="773" height="435" viewBox="0 0 773 435" fill="none" xmlns="http://www.w3.org/2000/svg">
<g opacity="0.1">
<path d="M187.734 288.268C187.453 286.778 187.01 285.328 186.406 283.958C186.043 283.112 186.164 282.146 186.768 281.421L189.224 278.4L185.52 273.889L182.098 275.701C181.293 276.144 180.286 276.064 179.521 275.54C178.273 274.694 176.945 273.969 175.535 273.406C174.69 273.083 174.086 272.278 174.006 271.351L173.643 267.485L167.846 266.921L166.718 270.667C166.437 271.553 165.712 272.197 164.786 272.358C163.296 272.64 161.847 273.083 160.478 273.687C159.633 274.05 158.666 273.929 157.942 273.325L154.922 270.868L150.413 274.574L152.225 277.997C152.668 278.803 152.587 279.81 152.064 280.575C151.218 281.824 150.493 283.153 149.93 284.562C149.608 285.408 148.803 286.012 147.877 286.093L144.012 286.456L143.448 292.256L147.192 293.383C148.078 293.665 148.722 294.39 148.883 295.317C149.165 296.807 149.608 298.257 150.212 299.626C150.574 300.472 150.453 301.479 149.849 302.164L147.393 305.185L151.097 309.696L154.519 307.883C155.325 307.44 156.331 307.521 157.096 308.044C158.344 308.89 159.673 309.615 161.082 310.179C161.927 310.501 162.531 311.307 162.612 312.233L162.974 316.1L168.772 316.664L169.899 312.918C170.181 312.032 170.905 311.388 171.831 311.226C173.321 310.944 174.77 310.501 176.139 309.897C176.985 309.535 177.951 309.656 178.676 310.26L181.695 312.717L186.204 309.011L184.393 305.588C183.95 304.782 184.03 303.775 184.554 303.01C185.399 301.761 186.124 300.432 186.688 299.022C187.01 298.176 187.815 297.572 188.741 297.492L192.606 297.129L193.169 291.329L189.425 290.201C188.58 289.919 187.895 289.154 187.734 288.268ZM166.879 306.554C158.747 305.749 152.788 298.499 153.594 290.363C154.399 282.226 161.646 276.265 169.778 277.071C177.911 277.876 183.869 285.126 183.064 293.262C182.259 301.399 175.012 307.319 166.879 306.554Z" fill="#E76358"/>
<path d="M158.505 290.806C159.029 285.368 163.86 281.421 169.295 281.944C174.73 282.468 178.676 287.301 178.152 292.739C177.629 298.176 172.798 302.124 167.363 301.6C161.927 301.076 157.982 296.243 158.505 290.806Z" fill="#E76358"/>
</g>
<path opacity="0.3" d="M367.98 419.614C468.595 419.614 550.159 413.014 550.159 404.872C550.159 396.731 468.595 390.131 367.98 390.131C267.366 390.131 185.802 396.731 185.802 404.872C185.802 413.014 267.366 419.614 367.98 419.614Z" fill="#FFBE55"/>
<path opacity="0.19" d="M312.743 357.868C312.743 361.292 315.521 364.071 318.943 364.071H541.704C545.126 364.071 547.904 361.292 547.904 357.868V165.985H312.783V357.868H312.743Z" fill="#E76358"/>
<path d="M382.716 278.642C383.762 282.267 385.212 285.771 387.064 289.114C388.191 291.128 388.11 293.625 386.822 295.558L381.427 303.654L391.774 314.006L399.866 308.608C401.799 307.319 404.295 307.239 406.308 308.367C409.609 310.219 413.112 311.669 416.776 312.717C418.99 313.361 420.681 315.174 421.164 317.469L423.056 327.015H437.671L439.604 317.429C440.046 315.174 441.737 313.321 443.992 312.676C447.615 311.629 451.118 310.179 454.46 308.326C456.473 307.199 458.969 307.279 460.901 308.568L468.994 313.965L479.341 303.614L473.946 295.518C472.657 293.585 472.577 291.087 473.704 289.074C475.556 285.771 477.005 282.267 478.052 278.601C478.696 276.386 480.508 274.694 482.803 274.211L492.345 272.318V257.697L482.763 255.764C480.508 255.321 478.656 253.629 478.012 251.374C476.965 247.749 475.516 244.244 473.664 240.901C472.537 238.887 472.617 236.39 473.905 234.457L479.3 226.361L468.953 216.01L460.861 221.407C458.928 222.696 456.432 222.776 454.419 221.649C451.118 219.796 447.615 218.346 443.952 217.299C441.737 216.654 440.046 214.842 439.563 212.546L437.671 203H423.056L421.124 212.586C420.681 214.842 418.99 216.694 416.736 217.339C413.112 218.386 409.609 219.836 406.268 221.689C404.255 222.817 401.759 222.736 399.826 221.447L391.734 216.05L381.387 226.401L386.782 234.497C388.07 236.431 388.151 238.928 387.023 240.942C385.171 244.244 383.722 247.749 382.675 251.414C382.031 253.629 380.219 255.321 377.925 255.804L368.383 257.697V272.318L377.965 274.251C380.26 274.694 382.112 276.386 382.716 278.642ZM430.303 227.851C450.796 227.851 467.423 244.486 467.423 264.987C467.423 285.489 450.796 302.124 430.303 302.124C409.811 302.124 393.183 285.489 393.183 264.987C393.183 244.526 409.811 227.892 430.303 227.851ZM312.743 135.011V153.579H547.864V135.011C547.864 131.587 545.086 128.808 541.664 128.808H318.903C315.481 128.808 312.743 131.587 312.743 135.011ZM374.623 135.011H386.983V147.417H374.623V135.011ZM349.863 135.011H362.223V147.417H349.863V135.011ZM325.103 135.011H337.463V147.417H325.103V135.011Z" fill="#E76358"/>
<path d="M455.064 265.028C455.064 278.682 443.992 289.799 430.303 289.799C416.615 289.799 405.543 278.722 405.543 265.028C405.543 251.374 416.615 240.257 430.303 240.257C443.952 240.257 455.064 251.333 455.064 265.028ZM436.503 23.6028C436.503 20.1792 433.725 17.4 430.303 17.4H207.542C204.12 17.4 201.342 20.1792 201.342 23.6028V42.1708H436.463V23.6028H436.503ZM226.102 35.9681H213.743V23.6028H226.102V35.9681ZM250.863 35.9681H238.503V23.6028H250.863V35.9681ZM275.623 35.9681H263.263V23.6028H275.623V35.9681Z" fill="#E76358"/>
<path opacity="0.19" d="M300.343 135.011C300.343 124.74 308.636 116.443 318.903 116.443H436.463V54.5361H201.342V246.419C201.342 249.843 204.12 252.622 207.542 252.622H300.343V135.011ZM349.863 85.5097H362.223V97.875H349.863V85.5097ZM325.103 85.5097H337.463V97.875H325.103V85.5097ZM300.343 85.5097H312.703V97.875H300.343V85.5097ZM275.623 234.054H226.102V221.689H275.623V234.054ZM275.623 209.283H226.102V196.918H275.623V209.283ZM275.623 184.553H226.102V172.187H275.623V184.553ZM275.623 159.782H226.102V147.417H275.623V159.782ZM275.623 135.011H226.102V122.646H275.623V135.011ZM275.623 97.875V85.5097H287.983V97.875H275.623Z" fill="#E76358"/>
<path d="M348.776 308.971L349.018 302.446L353.647 303.856L354.533 311.992C354.533 311.992 350.105 312.274 348.776 308.971Z" fill="#FCD2B1"/>
<path d="M349.179 309.011C350.266 309.454 352.077 309.857 354.332 309.333L354.05 307.481C354.05 307.481 355.338 308.246 355.661 309.938C355.983 311.589 356.063 311.146 358.157 312.435C360.29 313.724 360.129 316.624 360.129 316.624L344.347 316.221C344.347 316.221 343.904 313.039 346.763 309.656C347.327 308.931 348.333 308.649 349.179 309.011Z" fill="#232536"/>
<path d="M323.694 213.069C323.694 213.069 321.64 221.085 324.539 226.119C327.438 231.154 332.672 219.997 332.672 219.997C332.672 219.997 331.746 209.283 323.694 213.069Z" fill="#E76358"/>
<path d="M322.244 175.047C322.244 175.047 311.616 189.507 309.844 198.247C308.032 206.988 309.965 226.079 309.965 226.079H314.313C314.313 226.079 316.608 201.711 318.057 198.247C319.507 194.703 328.928 178.35 328.928 178.35L322.244 175.047Z" fill="#FFE3CA"/>
<path d="M320.433 315.899H360.774V320.531H320.433V315.899ZM311.817 347.879H355.177V352.511H311.817V347.879ZM307.912 378.812H351.272V383.444H307.912V378.812Z" fill="#D3D3D3"/>
<path d="M303.564 409.585H298.732L334.323 242.11H337.02L303.564 409.585ZM354.01 409.585H349.179L377.401 237.397L379.777 238.525L354.01 409.585Z" fill="#D3D3D3"/>
<path d="M344.227 409.585L370.195 242.392L334.323 242.11L298.732 409.585H293.176L329.33 237.397H377.401L350.709 409.585H343.421" fill="#F7F7F7"/>
<path d="M327.921 308.971L328.163 302.446L332.793 303.856L333.678 311.992C333.638 311.992 329.25 312.274 327.921 308.971Z" fill="#FCD2B1"/>
<path d="M373.617 161.756C373.617 161.756 385.091 160.91 386.46 155.593C387.829 150.276 387.587 135.938 387.587 135.938H391.573C391.573 135.938 394.311 149.269 394.149 155.593C393.988 161.917 386.299 172.711 373.617 172.026C360.975 171.342 373.617 161.756 373.617 161.756Z" fill="#FFE3CA"/>
<path d="M336.456 161.071C336.456 161.071 329.813 161.756 327.076 164.656C325.747 166.065 317.494 176.296 317.816 178.511L327.518 184.553L335.45 173.557L336.456 161.071Z" fill="#FFBE55"/>
<path d="M326.069 210.331C326.069 210.331 323.211 218.789 325.908 228.053C328.606 237.317 328.606 256.006 328.364 260.879C328.122 265.753 323.573 279.85 327.438 304.742H333.396C333.396 304.742 337.02 278.642 339.113 267.525C341.086 257.093 343.582 231.074 343.582 231.074C343.582 231.074 351.071 255.764 349.823 262.128C348.454 269.136 348.293 304.701 348.293 304.701H354.292C354.292 304.701 361.015 274.09 361.418 265.874C361.861 257.657 360.935 211.579 360.935 211.579C360.935 211.579 340.965 198.006 326.069 210.331Z" fill="#232536"/>
<path d="M346.521 145L340.442 163.608L351.433 165.783L353.849 146.49L346.521 145Z" fill="#FCD2B1"/>
<path d="M352.762 160.024C352.762 160.024 360.21 161.554 360.975 171.301C361.74 181.049 362.787 222.615 362.787 226.2C362.545 227.851 333.598 233.369 324.982 224.992C322.808 222.857 329.934 186.687 328.928 177.182C327.881 167.717 333.517 155.674 352.762 160.024Z" fill="#FFBE55"/>
<path d="M361.418 179.518C361.418 179.518 364.397 172.711 373.617 172.026C373.617 172.026 375.831 165.703 373.617 161.756C373.617 161.756 356.909 158.332 350.547 159.621C344.186 160.91 361.418 179.518 361.418 179.518Z" fill="#FFBE55"/>
<path d="M391.533 139.522C391.533 139.522 392.781 132.836 390.566 129.05C389.238 126.794 387.788 125.747 386.339 126.15C385.373 126.432 384.97 128.124 385.212 129.09C385.534 130.339 386.581 133.762 387.144 134.729C387.144 134.729 386.138 134.729 385.091 132.474C384.084 130.258 383.319 133.521 384.125 135.051C385.332 137.267 389.318 143.349 391.533 139.522Z" fill="#FFE3CA"/>
<path d="M328.283 309.011C329.37 309.454 331.182 309.857 333.437 309.333L333.155 307.481C333.155 307.481 334.443 308.246 334.765 309.938C335.087 311.589 335.168 311.146 337.261 312.435C339.395 313.724 339.234 316.624 339.234 316.624L323.452 316.221C323.452 316.221 323.009 313.039 325.868 309.656C326.472 308.931 327.438 308.649 328.283 309.011Z" fill="#232536"/>
<path d="M362.102 142.221C361.82 139.885 366.893 138.314 357.19 131.467C352.238 128.003 343.623 129.533 340.966 134.769C338.308 140.006 339.717 140.529 337.664 140.892C335.611 141.294 337.785 157.486 350.185 157.285C362.626 157.083 362.102 142.221 362.102 142.221Z" fill="#232536"/>
<path d="M324.378 207.431H362.142C363.672 207.431 364.92 208.558 365.081 210.049C365.726 215.728 366.41 228.617 359.767 229.543C351.232 230.751 348.494 221.528 348.494 212.949L323.694 213.069C323.694 213.069 322.848 208.961 324.378 207.431Z" fill="#E76358"/>
<path d="M314.031 223.824C314.031 223.824 313.307 232.403 316.084 234.739C318.862 237.115 311.173 238.162 309.28 233.812C307.388 229.462 309.965 223.824 309.965 223.824H314.031Z" fill="#FFE3CA"/>
<path d="M313.307 224.951C313.307 224.951 315.883 225.394 316.849 228.174C317.413 229.744 317.735 231.436 317.896 232.604C318.017 233.369 317.131 233.893 316.487 233.41C315.843 232.926 315.239 232.201 315.32 230.953C315.521 228.335 312.381 229.1 312.381 229.1C312.381 229.1 311.334 225.999 313.307 224.951Z" fill="#FFE3CA"/>
<path d="M355.459 213.351H353.486V207.511C353.486 207.189 353.768 206.907 354.09 206.907H354.896C355.218 206.907 355.5 207.189 355.5 207.511V213.351H355.459ZM358.398 213.351H356.425V209.485C356.425 209.162 356.707 208.881 357.029 208.881H357.835C358.157 208.881 358.439 209.162 358.439 209.485V213.351H358.398ZM362.142 213.351H359.405V204.933C359.405 204.49 359.767 204.128 360.21 204.128H361.337C361.78 204.128 362.142 204.49 362.142 204.933V213.351Z" fill="#F7F7F7"/>
<path opacity="0.32" d="M349.138 213.351H364.357V214.64H349.138V213.351Z" fill="#161616"/>
<path d="M224.412 330.076C223.687 328.224 222.801 326.411 221.674 324.76C220.989 323.753 220.949 322.424 221.513 321.376L224.009 316.865L218.131 311.871L214.105 315.093C213.139 315.858 211.85 316.019 210.723 315.496C208.911 314.69 206.979 314.046 205.046 313.683C203.838 313.442 202.872 312.556 202.55 311.388L201.141 306.474L193.451 307.118L192.847 312.233C192.727 313.442 191.881 314.489 190.754 314.932C188.902 315.657 187.09 316.543 185.439 317.671C184.433 318.356 183.104 318.396 182.058 317.832L177.548 315.335L172.556 321.215L175.777 325.243C176.542 326.21 176.703 327.499 176.18 328.626C175.374 330.439 174.73 332.372 174.368 334.306C174.126 335.514 173.241 336.481 172.073 336.803L167.121 338.213L167.765 345.906L172.878 346.51C174.086 346.631 175.133 347.476 175.576 348.604C176.3 350.457 177.186 352.269 178.313 353.921C178.998 354.928 179.038 356.257 178.474 357.304L175.978 361.815L181.856 366.81L185.882 363.588C186.849 362.822 188.137 362.661 189.264 363.185C191.076 363.99 193.008 364.635 194.941 364.997C196.149 365.239 197.115 366.125 197.437 367.293L198.846 372.247L206.536 371.603L207.14 366.488C207.261 365.279 208.106 364.232 209.233 363.789C211.085 363.064 212.897 362.178 214.548 361.05C215.554 360.365 216.883 360.325 217.93 360.889L222.439 363.386L227.431 357.506L224.21 353.478C223.445 352.511 223.284 351.222 223.808 350.094C224.613 348.282 225.257 346.349 225.619 344.415C225.861 343.207 226.747 342.24 227.914 341.918L232.866 340.508L232.222 332.815L227.109 332.211C225.901 332.05 224.854 331.204 224.412 330.076ZM201.624 358.875C190.834 359.761 181.373 351.746 180.447 340.951C179.561 330.157 187.573 320.692 198.363 319.765C209.153 318.879 218.614 326.894 219.54 337.689C220.426 348.483 212.414 357.949 201.624 358.875Z" fill="#FFBE55"/>
<path d="M186.969 340.428C186.366 333.218 191.72 326.894 198.887 326.29C206.093 325.686 212.414 331.043 213.018 338.213C213.622 345.422 208.267 351.746 201.101 352.35C193.894 352.954 187.573 347.638 186.969 340.428Z" fill="#FFBE55"/>
<path d="M287.097 277.071C285.165 275.339 283.071 273.808 280.776 272.56C279.367 271.794 278.562 270.304 278.602 268.733L278.803 262.047L269.06 259.792L266.323 265.874C265.678 267.324 264.269 268.29 262.659 268.371C260.082 268.492 257.506 268.935 255.009 269.66C253.48 270.103 251.829 269.66 250.742 268.492L246.192 263.618L237.697 268.894L240.033 275.178C240.596 276.668 240.274 278.36 239.187 279.528C237.456 281.461 235.926 283.556 234.678 285.851C233.913 287.261 232.423 288.067 230.853 288.026L224.17 287.825L221.915 297.572L227.995 300.311C229.444 300.956 230.41 302.365 230.491 303.976C230.612 306.554 231.055 309.132 231.739 311.629C232.182 313.16 231.739 314.811 230.571 315.899L225.7 320.45L230.974 328.949L237.255 326.572C238.744 326.008 240.395 326.331 241.603 327.418C243.535 329.15 245.629 330.681 247.924 331.929C249.333 332.694 250.178 334.185 250.098 335.756L249.896 342.442L259.639 344.697L262.377 338.615C263.021 337.165 264.43 336.199 266.041 336.118C268.617 335.997 271.194 335.554 273.69 334.869C275.22 334.426 276.871 334.869 277.958 336.038L282.507 340.911L291.002 335.635L288.667 329.351C288.104 327.861 288.426 326.169 289.513 325.001C291.244 323.068 292.774 320.974 294.022 318.678C294.787 317.268 296.276 316.463 297.847 316.503L304.53 316.704L306.784 306.957L300.705 304.218C299.256 303.574 298.289 302.164 298.209 300.553C298.088 297.975 297.645 295.397 296.961 292.9C296.518 291.369 296.961 289.718 298.128 288.631L303 284.079L297.726 275.581L291.445 277.917C289.956 278.44 288.305 278.118 287.097 277.071ZM277.837 323.833C265.92 331.285 250.218 327.619 242.77 315.697C235.322 303.775 238.986 288.067 250.903 280.615C262.82 273.164 278.522 276.829 285.97 288.751C293.378 300.714 289.754 316.382 277.837 323.833Z" fill="#E63627"/>
<path d="M249.977 311.186C245.025 303.251 247.441 292.779 255.412 287.825C263.384 282.871 273.811 285.288 278.763 293.263C283.715 301.197 281.3 311.669 273.328 316.624C265.397 321.578 254.929 319.161 249.977 311.186Z" fill="#E63627"/>
<path d="M568.799 89.5778C567.229 91.5917 565.941 93.7667 564.894 96.1028C564.25 97.5125 562.881 98.4792 561.311 98.5597L554.748 98.8819L553.299 108.589L559.459 110.804C560.908 111.328 561.955 112.657 562.156 114.188C562.478 116.725 563.082 119.182 564.008 121.558C564.572 123.008 564.25 124.66 563.203 125.828L558.815 130.661L564.652 138.556L570.611 135.776C572.02 135.132 573.671 135.293 574.919 136.26C576.932 137.831 579.106 139.119 581.441 140.167C582.85 140.811 583.816 142.181 583.897 143.751L584.219 150.317L593.922 151.767L596.136 145.604C596.659 144.154 597.988 143.107 599.518 142.906C602.054 142.583 604.51 141.979 606.886 141.053C608.335 140.489 609.986 140.811 611.153 141.858L615.984 146.289L623.875 140.449L621.097 134.487C620.453 133.078 620.614 131.426 621.581 130.178C623.151 128.164 624.439 125.989 625.486 123.653C626.13 122.243 627.499 121.276 629.069 121.196L635.632 120.874L637.081 111.167L630.921 108.951C629.472 108.428 628.425 107.099 628.224 105.568C627.901 103.031 627.298 100.574 626.372 98.1972C625.808 96.7472 626.13 95.0958 627.177 93.9278L631.605 89.0944L625.768 81.2L619.809 83.9792C618.4 84.6236 616.749 84.4625 615.501 83.4958C613.488 81.925 611.314 80.6361 608.979 79.5889C607.57 78.9444 606.604 77.575 606.523 76.0042L606.201 69.4389L596.498 67.9889L594.284 74.1514C593.761 75.6014 592.432 76.6486 590.902 76.85C588.366 77.1722 585.91 77.7764 583.535 78.7028C582.085 79.2667 580.434 78.9444 579.267 77.8972L574.436 73.4667L566.545 79.3069L569.323 85.2681C569.926 86.6778 569.765 88.3292 568.799 89.5778ZM615.219 95.0153C623.392 106.092 621.057 121.76 609.986 129.936C598.914 138.113 583.253 135.776 575.08 124.7C566.907 113.624 569.242 97.9556 580.314 89.7792C591.426 81.6028 607.047 83.9389 615.219 95.0153Z" fill="#FFBE55"/>
<path d="M605.034 123.25C597.626 128.728 587.238 127.157 581.763 119.746C576.288 112.335 577.858 101.943 585.266 96.4653C592.674 90.9875 603.061 92.5583 608.536 99.9694C614.012 107.34 612.441 117.772 605.034 123.25Z" fill="#FFBE55"/>
<path d="M469.436 57.0333C468.833 60.2958 468.631 63.5986 468.752 66.9014C468.833 68.9153 467.826 70.8486 466.055 71.8556L458.687 76.0847L462.753 88.1681L471.208 87.0806C473.221 86.8389 475.194 87.725 476.321 89.3764C478.213 92.1153 480.387 94.6125 482.803 96.8278C484.293 98.1972 484.896 100.292 484.373 102.225L482.159 110.401L493.552 116.081L498.786 109.354C500.034 107.743 502.047 106.978 504.02 107.34C507.281 107.944 510.583 108.186 513.884 108.025C515.897 107.944 517.829 108.951 518.836 110.724L523.063 118.094L535.141 114.026L534.054 105.568C533.813 103.554 534.699 101.581 536.349 100.453C539.087 98.6 541.583 96.3847 543.797 93.9681C545.166 92.4778 547.26 91.8736 549.192 92.3972L557.405 94.6125L563.082 83.1736L556.318 77.9375C554.708 76.6889 553.943 74.675 554.305 72.7014C554.909 69.4389 555.151 66.1361 554.99 62.8333C554.909 60.8194 555.956 58.8861 557.687 57.8792L565.055 53.65L560.989 41.5667L552.534 42.6542C550.521 42.8958 548.548 42.0097 547.421 40.3583C545.569 37.6194 543.355 35.1222 540.939 32.9069C539.449 31.5375 538.845 29.4431 539.369 27.5097L541.583 19.2931L530.23 13.6139L524.996 20.3403C523.748 21.9514 521.735 22.7167 519.762 22.3542C516.501 21.75 513.2 21.5083 509.898 21.6694C507.885 21.75 505.953 20.7431 504.946 18.9708L500.719 11.6L488.641 15.6681L489.728 24.1264C489.969 26.1403 489.083 28.1139 487.433 29.2417C484.695 31.0944 482.199 33.3097 479.985 35.7264C478.616 37.2167 476.522 37.8208 474.59 37.2972L466.377 35.0819L460.7 46.5208L467.423 51.7569C469.074 53.0056 469.839 55.0195 469.436 57.0333ZM526.324 35.8069C542.348 43.7819 548.87 63.2361 540.939 79.2667C532.967 95.2972 513.522 101.822 497.498 93.8875C481.474 85.9125 474.952 66.4583 482.883 50.4278C490.855 34.3972 510.301 27.8722 526.324 35.8069Z" fill="#E63627"/>
<path d="M531.236 74.4736C525.922 85.1472 512.958 89.5375 502.289 84.2208C491.62 78.9042 487.232 65.9347 492.546 55.2611C497.86 44.5875 510.824 40.1972 521.493 45.5139C532.202 50.7903 536.551 63.7597 531.236 74.4736Z" fill="#E63627"/>
</svg>
