<svg width="456" height="456" viewBox="0 0 456 456" fill="none" xmlns="http://www.w3.org/2000/svg">
<path opacity="0.1" d="M301.761 350.54C255.591 388.355 242.809 361.479 192.224 326.614C171.062 312.029 123.343 307.067 87.9379 286.841C14.4391 244.853 42.0449 167.032 107.53 113.397C173.016 59.7609 269.582 69.3673 323.217 134.853C376.853 200.338 367.247 296.905 301.761 350.54ZM439.661 435.311H24.298C22.0459 435.311 20.2037 433.468 20.2037 431.216V419.772C20.2037 417.52 22.0463 415.678 24.298 415.678H439.661C441.913 415.678 443.756 417.52 443.756 419.772V431.216C443.756 433.468 441.913 435.311 439.661 435.311Z" fill="#E63627"/>
<path d="M65.9376 391.747C65.9841 377.845 63.3038 348.748 47.2404 343.892" stroke="white" stroke-width="0.75" stroke-miterlimit="10" stroke-linecap="round"/>
<path d="M73.7744 389.241C75.6335 372.956 82.7762 339.256 102.253 335.781" stroke="white" stroke-width="0.75" stroke-miterlimit="10" stroke-linecap="round"/>
<path d="M387.756 95.3715V273.57C387.756 277.501 384.543 280.719 380.612 280.719H97.4193C93.4884 280.719 90.2711 277.501 90.2711 273.57V95.3715C90.2711 91.4406 93.4884 88.2275 97.4193 88.2275H380.612C384.543 88.2275 387.756 91.4406 387.756 95.3715Z" stroke="#232536" stroke-width="2" stroke-miterlimit="10"/>
<path d="M397.045 86.0827V264.282C397.045 266.426 396.087 268.36 394.579 269.669C394.356 269.872 394.115 270.053 393.866 270.222C392.694 271.011 391.314 271.431 389.901 271.43H106.708C105.247 271.43 103.879 270.986 102.744 270.222C100.827 268.934 99.5601 266.747 99.5601 264.282V86.0827C99.5601 82.1518 102.777 78.9387 106.708 78.9387H389.901C393.832 78.9387 397.045 82.1518 397.045 86.0827Z" fill="#F5F5F5"/>
<path opacity="0.1" d="M243.08 233.248C273.794 233.248 298.693 208.349 298.693 177.635C298.693 146.921 273.794 122.022 243.08 122.022C212.365 122.022 187.467 146.921 187.467 177.635C187.467 208.349 212.365 233.248 243.08 233.248Z" fill="#232536"/>
<path d="M209.207 209.09L210.18 206.557C210.18 206.557 214.519 203.444 214.92 202.171C214.578 201.923 212.315 202.89 211.725 202.985C212.258 201.655 213.566 198.77 214.48 197.545C214.745 197.189 214.517 196.677 214.073 196.662C212.869 196.621 210.806 197.169 209.355 197.619C207.032 200.107 206.76 204.081 207.538 205.166C206.889 206.888 205.836 208.798 205.836 208.798L209.207 209.09Z" fill="#FFE3CA"/>
<path d="M206.678 206.256L210.056 208.789L202.244 227.578L198.644 221.225L206.678 206.256Z" fill="#FFBE55"/>
<path d="M233.924 206.147L228.67 210.577C229.063 210.247 229.416 209.872 229.721 209.459L234.975 205.029C234.67 205.442 234.317 205.817 233.924 206.147Z" fill="#FCAD00"/>
<path d="M265.08 143.176C271.815 143.884 276.187 150.13 272.734 154.624L255.307 177.308L278.939 202.595C283.523 207.502 279.887 213.911 272.619 213.739L271.953 213.722C271.644 213.714 271.335 213.694 271.028 213.662C268.308 213.376 265.735 212.136 264.044 210.264L244.806 188.929L229.721 209.458C228.255 211.452 225.543 212.609 222.499 212.536C222.173 212.528 221.849 212.507 221.525 212.474C214.786 211.765 210.415 205.517 213.874 201.02L232.397 176.961L210.145 153.108C205.567 148.202 209.203 141.798 216.468 141.971L217.11 141.985C217.418 141.993 217.725 142.013 218.03 142.045C220.776 142.334 223.371 143.592 225.058 145.494L242.781 165.438L256.865 146.201C258.331 144.201 261.049 143.039 264.096 143.112C264.425 143.12 264.753 143.142 265.08 143.176ZM177.544 302.1C174.167 310.122 148.411 381.056 156.433 411.456H166.144C166.144 411.456 192.744 327.433 192.744 325.744C192.744 335.033 196.122 403.433 198.656 411.456C203.722 412.3 210.9 411.456 210.9 411.456C210.9 411.456 214.7 317.3 212.167 301.678C198.656 299.989 177.544 302.1 177.544 302.1Z" fill="#E76358"/>
<path d="M211.505 302.892L176.891 304.762C175.693 304.827 175.118 303.314 176.057 302.567C176.562 302.166 176.86 301.566 176.905 300.922C176.961 300.107 177.233 299.475 178.128 299.426L211.221 297.638C212.325 297.579 212.268 298.341 212.294 299.389C212.3 299.617 212.396 299.835 212.561 299.993C213.164 300.566 213.326 301.511 212.849 302.193C212.565 302.599 212.119 302.859 211.505 302.892Z" fill="#FFBE55"/>
<path opacity="0.09" d="M211.505 302.892L176.891 304.762C175.693 304.827 175.118 303.314 176.057 302.567C176.562 302.166 176.86 301.566 176.905 300.922C176.961 300.107 177.233 299.475 178.128 299.426L211.221 297.638C212.325 297.579 212.268 298.341 212.294 299.389C212.3 299.617 212.396 299.835 212.561 299.993C213.164 300.566 213.326 301.511 212.849 302.193C212.565 302.599 212.119 302.859 211.505 302.892Z" fill="#070707"/>
<path d="M205.757 241.661L227.789 208.789L232.011 211.322L206.889 257.556C206.889 257.556 209.827 271.041 210.478 275.922C210.943 279.408 212.942 282.51 214.646 285.299C216.683 288.632 216.603 292.849 214.431 296.096C213.053 298.157 211.744 299.989 211.744 299.989C207.1 300.411 181.344 303.789 176.278 299.989C171.211 296.189 175.011 291.967 175.011 291.967C175.011 291.967 181.047 281.999 180.562 274.527C180.078 267.056 178.811 246.789 178.811 246.789L205.757 241.661Z" fill="#FFBE55"/>
<path d="M228.518 209.226L229.9 207.1C229.9 207.1 228.211 202.033 228.633 200.767C229.056 200.767 230.322 202.878 230.744 203.3C231.092 201.91 231.725 198.806 231.703 197.279C231.697 196.835 232.182 196.554 232.55 196.802C233.55 197.475 234.899 199.129 235.811 200.344C236.233 203.722 234.122 207.1 232.856 207.522C231.589 209.211 231.42 210.968 231.42 210.968L228.518 209.226ZM157.683 411.456L157.7 415.256H163.611V411.456H157.683ZM201.172 411.456L201.189 415.256H207.1V411.456H201.172Z" fill="#FFE3CA"/>
<path d="M209.633 424.122C209.633 424.464 208.869 424.772 207.729 425.005C204.626 425.63 198.736 425.663 197.811 424.122C197.233 423.16 197.883 420.981 198.761 418.904C199.804 416.429 201.172 414.09 201.172 414.09H207.1C208.367 416.944 209.633 422.856 209.633 424.122ZM166.989 424.122C166.989 424.515 165.849 424.857 164.24 425.081C160.668 425.575 154.774 425.478 153.9 424.021C153.355 423.113 153.9 421.137 154.698 419.178C155.754 416.573 157.261 413.989 157.261 413.989H163.189C164.456 416.843 166.989 422.856 166.989 424.122Z" fill="#232536"/>
<path d="M247.965 238.133C278.679 238.133 303.578 213.235 303.578 182.52C303.578 151.806 278.679 126.907 247.965 126.907C217.251 126.907 192.352 151.806 192.352 182.52C192.352 213.235 217.251 238.133 247.965 238.133Z" fill="white" stroke="#FFBE55" stroke-miterlimit="10"/>
<path d="M164.24 425.081C160.668 425.575 154.774 425.478 153.9 424.021C153.355 423.113 153.9 421.137 154.698 419.178C155.597 418.692 156.619 418.422 157.7 418.422C161.28 418.422 164.194 421.395 164.24 425.081ZM207.729 425.005C204.626 425.63 198.736 425.663 197.811 424.122C197.233 423.16 197.883 420.981 198.761 418.904C199.513 418.591 200.332 418.422 201.189 418.422C204.748 418.422 207.64 421.352 207.729 425.005Z" fill="#232536"/>
<path d="M203.511 227.789C203.511 232.592 202.939 235.974 199.078 235.974C195.217 235.974 190.211 232.421 190.211 227.618C190.211 222.816 193.341 218.922 197.202 218.922C201.064 218.922 203.511 222.986 203.511 227.789Z" fill="#FFE3CA"/>
<path d="M197.811 222.3C202.456 221.456 209.211 213.856 202.878 210.9C196.544 207.944 184.722 207.1 179.656 215.122C174.589 223.144 180.922 229.478 181.767 233.7C182.611 237.922 179.022 241.089 173.956 245.311C168.889 249.533 161.5 266.211 174.167 272.122C186.833 278.033 207.1 273.389 208.367 254.389C209.633 235.389 192.744 232.856 192.744 231.167C192.744 229.478 197.811 222.3 197.811 222.3Z" fill="#232536"/>
<path d="M195.288 228.657C196.475 228.317 197.071 226.758 196.618 225.175C196.165 223.592 194.836 222.584 193.648 222.924C192.461 223.263 191.866 224.822 192.318 226.405C192.771 227.988 194.101 228.996 195.288 228.657Z" fill="#FFE3CA"/>
<path d="M397.045 86.0827V95.0001H99.5601V86.0827C99.5601 82.1518 102.777 78.9387 106.708 78.9387H389.901C393.832 78.9387 397.045 82.1518 397.045 86.0827ZM204.161 116.348H113.773C112.04 116.348 110.622 114.931 110.622 113.198V111.24C110.622 109.507 112.04 108.089 113.773 108.089H204.161C205.894 108.089 207.312 109.507 207.312 111.24V113.198C207.311 114.931 205.893 116.348 204.161 116.348ZM178.857 129.622H113.321C111.837 129.622 110.622 128.408 110.622 126.924V124.062C110.622 122.577 111.837 121.363 113.321 121.363H178.857C180.341 121.363 181.556 122.577 181.556 124.062V126.924C181.556 128.408 180.341 129.622 178.857 129.622ZM185.902 142.711H113.454C111.897 142.711 110.622 141.437 110.622 139.879V137.283C110.622 135.726 111.897 134.452 113.454 134.452H185.902C187.46 134.452 188.734 135.726 188.734 137.283V139.879C188.733 141.437 187.459 142.711 185.902 142.711ZM385.911 263.889H339.467C336.68 263.889 334.4 261.609 334.4 258.822V218.711C334.4 215.924 336.68 213.644 339.467 213.644H385.911C388.698 213.644 390.978 215.924 390.978 218.711V258.822C390.978 261.609 388.698 263.889 385.911 263.889Z" fill="#E76358"/>
<path d="M264.671 171.487H261.837V165.818C261.837 157.995 255.488 151.646 247.664 151.646C239.841 151.646 233.492 157.995 233.492 165.818V171.487H230.657C227.539 171.487 224.988 174.038 224.988 177.156V205.501C224.988 208.619 227.539 211.17 230.657 211.17H264.671C267.789 211.17 270.34 208.619 270.34 205.501V177.156C270.34 174.038 267.789 171.487 264.671 171.487ZM247.664 196.998C244.546 196.998 241.995 194.447 241.995 191.329C241.995 188.211 244.546 185.66 247.664 185.66C250.782 185.66 253.333 188.211 253.333 191.329C253.333 194.447 250.782 196.998 247.664 196.998ZM256.451 171.487H238.877V165.818C238.877 160.971 242.817 157.031 247.664 157.031C252.511 157.031 256.451 160.971 256.451 165.818V171.487Z" fill="#E63627"/>
</svg>
